<svg width="50" height="50" viewBox="0 0 50 50" fill="none" xmlns="http://www.w3.org/2000/svg">
<path d="M35 0H14.1667C13.0616 0 12.0018 0.523603 11.2204 1.45562C10.439 2.38764 10 3.65173 10 4.96981V47.2132C10 47.8722 10.2195 48.5043 10.6102 48.9703C11.0009 49.4363 11.5308 49.6981 12.0833 49.6981H37.0833C37.6359 49.6981 38.1658 49.4363 38.5565 48.9703C38.9472 48.5043 39.1667 47.8722 39.1667 47.2132V4.96981C39.1667 3.65173 38.7277 2.38764 37.9463 1.45562C37.1649 0.523603 36.1051 0 35 0ZM22.5 34.7887H16.25V29.8189H22.5V34.7887ZM22.5 24.849H16.25V19.8792H22.5V24.849ZM22.5 14.9094H16.25V9.93962H22.5V14.9094ZM32.9167 34.7887H26.6667V29.8189H32.9167V34.7887ZM32.9167 24.849H26.6667V19.8792H32.9167V24.849ZM32.9167 14.9094H26.6667V9.93962H32.9167V14.9094Z" fill="#F8F8F8"/>
</svg>
