<svg width="50" height="50" viewBox="0 0 50 50" fill="none" xmlns="http://www.w3.org/2000/svg">
<path d="M16.6667 25C18.8768 25 20.9964 24.1221 22.5592 22.5593C24.122 20.9965 25 18.8768 25 16.6667C25 14.4566 24.122 12.337 22.5592 10.7742C20.9964 9.21135 18.8768 8.33337 16.6667 8.33337C14.4565 8.33337 12.3369 9.21135 10.7741 10.7742C9.21131 12.337 8.33333 14.4566 8.33333 16.6667C8.33333 18.8768 9.21131 20.9965 10.7741 22.5593C12.3369 24.1221 14.4565 25 16.6667 25ZM35.4167 25C37.0743 25 38.664 24.3416 39.8361 23.1695C41.0082 21.9974 41.6667 20.4076 41.6667 18.75C41.6667 17.0924 41.0082 15.5027 39.8361 14.3306C38.664 13.1585 37.0743 12.5 35.4167 12.5C33.7591 12.5 32.1694 13.1585 30.9973 14.3306C29.8251 15.5027 29.1667 17.0924 29.1667 18.75C29.1667 20.4076 29.8251 21.9974 30.9973 23.1695C32.1694 24.3416 33.7591 25 35.4167 25ZM7.03125 28.125C5.99525 28.125 5.00168 28.5366 4.26911 29.2692C3.53655 30.0017 3.125 30.9953 3.125 32.0313V33.3334C3.125 33.3334 3.125 42.7084 16.6667 42.7084C30.2083 42.7084 30.2083 33.3334 30.2083 33.3334V32.0313C30.2083 30.9953 29.7968 30.0017 29.0642 29.2692C28.3317 28.5366 27.3381 28.125 26.3021 28.125H7.03125ZM29.8688 39.6761C31.3021 40.2573 33.1177 40.625 35.4156 40.625C46.3531 40.625 46.3531 32.2917 46.3531 32.2917V32.0313C46.3531 30.9955 45.9417 30.0021 45.2094 29.2695C44.477 28.537 43.4837 28.1253 42.4479 28.125H30.8406C31.7773 29.2107 32.2917 30.5974 32.2896 32.0313V33.3802L32.2885 33.4396C32.2824 33.6418 32.2685 33.8437 32.2469 34.0448C32.1952 34.5098 32.1114 34.9706 31.9958 35.424C31.6014 36.978 30.8758 38.4285 29.8688 39.6761Z" fill="#F8F8F8"/>
</svg>
