<svg width="50" height="50" viewBox="0 0 50 50" fill="none" xmlns="http://www.w3.org/2000/svg">
<path d="M43.75 18.75C43.75 18.75 43.75 20.5219 43.0235 22.8516L34.9266 14.7563C34.4875 14.3166 33.8917 14.0693 33.2703 14.0688H26.0782C25.554 14.0691 25.0452 14.2452 24.6328 14.5688L21.7938 16.7906C21.5989 16.9433 21.3759 17.056 21.1374 17.1224C20.899 17.1888 20.6498 17.2075 20.4041 17.1774C20.1584 17.1474 19.921 17.0692 19.7055 16.9473C19.4901 16.8255 19.3008 16.6623 19.1485 16.4672C18.8407 16.0726 18.7019 15.5721 18.7625 15.0753C18.8232 14.5786 19.0783 14.1262 19.4719 13.8172L29.1594 6.25H31.25C34.5652 6.25 37.7447 7.56696 40.0889 9.91117C42.4331 12.2554 43.75 15.4348 43.75 18.75ZM11.5375 23.9531C11.3812 23.7964 11.1955 23.6721 10.9911 23.5873C10.7866 23.5024 10.5675 23.4588 10.3461 23.4588C10.1248 23.4588 9.90561 23.5024 9.70117 23.5873C9.49673 23.6721 9.31103 23.7964 9.15472 23.9531L6.74222 26.375C6.42601 26.6924 6.24847 27.1223 6.24847 27.5703C6.24847 28.0184 6.42601 28.4482 6.74222 28.7656C6.89853 28.9223 7.08423 29.0467 7.28867 29.1315C7.49311 29.2163 7.71228 29.26 7.93362 29.26C8.15496 29.26 8.37413 29.2163 8.57857 29.1315C8.78301 29.0467 8.96871 28.9223 9.12503 28.7656L11.5375 26.3438C11.8536 26.0266 12.0311 25.597 12.0311 25.1492C12.0311 24.7014 11.8536 24.2719 11.5375 23.9547V23.9531ZM14.0313 27.2188C14.1875 27.0616 14.3733 26.9369 14.5779 26.8518C14.7825 26.7668 15.0019 26.723 15.2235 26.723C15.4451 26.723 15.6645 26.7668 15.8691 26.8518C16.0737 26.9369 16.2594 27.0616 16.4157 27.2188C16.7314 27.5361 16.9086 27.9656 16.9086 28.4133C16.9086 28.861 16.7314 29.2904 16.4157 29.6078L14 32.025C13.8438 32.1819 13.6582 32.3064 13.4537 32.3913C13.2492 32.4763 13.03 32.52 12.8086 32.52C12.5872 32.52 12.368 32.4763 12.1635 32.3913C11.9591 32.3064 11.7734 32.1819 11.6172 32.025C11.3015 31.7076 11.1243 31.2782 11.1243 30.8305C11.1243 30.3828 11.3015 29.9533 11.6172 29.6359L14.0297 27.2172L14.0313 27.2188ZM20.4641 31.2766C20.3078 31.1199 20.1221 30.9955 19.9176 30.9107C19.7132 30.8259 19.494 30.7822 19.2727 30.7822C19.0513 30.7822 18.8322 30.8259 18.6277 30.9107C18.4233 30.9955 18.2376 31.1199 18.0813 31.2766L15.6688 33.6953C15.3522 34.0126 15.1744 34.4424 15.1744 34.8906C15.1744 35.3388 15.3522 35.7687 15.6688 36.0859C15.825 36.2428 16.0107 36.3673 16.2151 36.4523C16.4196 36.5372 16.6388 36.581 16.8602 36.581C17.0816 36.581 17.3008 36.5372 17.5053 36.4523C17.7097 36.3673 17.8954 36.2428 18.0516 36.0859L20.4641 33.6656C20.7803 33.3482 20.9578 32.9184 20.9578 32.4703C20.9578 32.0223 20.7803 31.5924 20.4641 31.275V31.2766ZM24.511 35.3328C24.3547 35.1757 24.169 35.051 23.9644 34.9659C23.7598 34.8808 23.5404 34.837 23.3188 34.837C23.0972 34.837 22.8778 34.8808 22.6732 34.9659C22.4686 35.051 22.2828 35.1757 22.1266 35.3328L19.7141 37.7531C19.3984 38.0705 19.2211 38.5 19.2211 38.9477C19.2211 39.3953 19.3984 39.8248 19.7141 40.1422C19.8703 40.2991 20.056 40.4236 20.2604 40.5085C20.4649 40.5935 20.6841 40.6372 20.9055 40.6372C21.1269 40.6372 21.3461 40.5935 21.5506 40.5085C21.755 40.4236 21.9407 40.2991 22.0969 40.1422L24.5094 37.7219C24.8255 37.4047 25.003 36.9752 25.003 36.5273C25.003 36.0795 24.8255 35.65 24.5094 35.3328H24.511ZM23.5 6.70781C22.6771 6.46419 21.8298 6.31223 20.9735 6.25469C20.9266 6.25214 20.8797 6.25109 20.8328 6.25156H20.3125C16.9973 6.25156 13.8179 7.56852 11.4737 9.91273C9.12949 12.2569 7.81253 15.4364 7.81253 18.7516V22.0125C8.58521 21.3847 9.56339 21.0661 10.5576 21.1183C11.5518 21.1706 12.4912 21.59 13.1938 22.2953C13.8078 22.9125 14.1828 23.6797 14.3172 24.4797C14.91 24.3439 15.5258 24.344 16.1186 24.48C16.7113 24.6159 17.2656 24.8842 17.74 25.2648C18.2143 25.6454 18.5964 26.1283 18.8577 26.6775C19.1189 27.2267 19.2525 27.8278 19.2485 28.4359C19.7815 28.4334 20.3098 28.5367 20.8027 28.7398C21.2956 28.9428 21.7434 29.2416 22.12 29.6188C22.4967 29.9961 22.7948 30.4443 22.997 30.9375C23.1993 31.4307 23.3018 31.9591 23.2985 32.4922C23.8303 32.4893 24.3575 32.5922 24.8492 32.795C25.3409 32.9978 25.7874 33.2964 26.1625 33.6734C26.9176 34.4316 27.3416 35.4581 27.3416 36.5281C27.3416 37.5982 26.9176 38.6246 26.1625 39.3828L25.811 39.7359L27.8016 41.7109C28.117 42.0219 28.5422 42.1963 28.9852 42.1963C29.4282 42.1963 29.8533 42.0219 30.1688 41.7109C30.8157 41.0703 30.8172 40.0328 30.1719 39.3906C29.9502 39.1708 29.8249 38.8719 29.8236 38.5597C29.8223 38.2474 29.945 37.9475 30.1649 37.7258C30.3847 37.5041 30.6836 37.3788 30.9958 37.3775C31.3081 37.3761 31.608 37.4989 31.8297 37.7188C32.1452 38.0297 32.5703 38.2041 33.0133 38.2041C33.4563 38.2041 33.8814 38.0297 34.1969 37.7188C34.3505 37.567 34.4726 37.3863 34.5559 37.1871C34.6392 36.9879 34.6822 36.7741 34.6823 36.5581C34.6825 36.3422 34.6398 36.1284 34.5567 35.929C34.4737 35.7297 34.3519 35.5488 34.1985 35.3969C33.9907 35.1742 33.8773 34.8798 33.8819 34.5753C33.8866 34.2708 34.0089 33.9799 34.2234 33.7637C34.4378 33.5474 34.7276 33.4226 35.032 33.4154C35.3365 33.4082 35.6319 33.5192 35.8563 33.725C36.1721 34.0351 36.5971 34.2086 37.0397 34.208C37.4823 34.2074 37.9069 34.0328 38.2219 33.7219C38.8844 33.0656 38.8813 32 38.2485 31.3703L38.2438 31.3672L34.7235 27.8453C34.5165 27.6232 34.4038 27.3293 34.4091 27.0257C34.4145 26.7222 34.5375 26.4325 34.7522 26.2178C34.9669 26.0031 35.2566 25.8801 35.5602 25.8747C35.8637 25.8694 36.1576 25.9821 36.3797 26.1891L40.4985 30.3031C41.3219 31.1203 42.6797 31.1281 43.3938 30.4203C44.1047 29.7156 44.0985 28.3781 43.2828 27.5672L43.2797 27.5641L32.911 17.1969H26.3485L23.7203 19.2531C23.2023 19.6585 22.6094 19.9579 21.9757 20.1341C21.3419 20.3103 20.6796 20.3599 20.0267 20.2801C19.3737 20.2003 18.7429 19.9926 18.1702 19.669C17.5976 19.3453 17.0943 18.912 16.6891 18.3938C15.8704 17.3463 15.5011 16.0167 15.6622 14.6971C15.8234 13.3775 16.5018 12.1759 17.5485 11.3563L23.4985 6.70938L23.5 6.70781Z" fill="#F5FFFA"/>
</svg>
