<svg width="50" height="50" viewBox="0 0 50 50" fill="none" xmlns="http://www.w3.org/2000/svg">
<path d="M25 0C11.1942 0 0 11.1942 0 25C0 38.8058 11.1942 50 25 50C38.8058 50 50 38.8058 50 25C50 11.1942 38.8058 0 25 0ZM34.8493 32.6842L33.2533 34.8605C33.2186 34.9079 33.1749 34.9479 33.1247 34.9784C33.0744 35.0088 33.0186 35.029 32.9606 35.0378C32.9025 35.0466 32.8432 35.0439 32.7862 35.0297C32.7292 35.0156 32.6756 34.9903 32.6283 34.9554L23.3984 28.2254C23.3409 28.1842 23.2942 28.1297 23.2621 28.0665C23.2301 28.0034 23.2137 27.9335 23.2143 27.8627V12.5C23.2143 12.2545 23.4152 12.0536 23.6607 12.0536H26.3449C26.5904 12.0536 26.7913 12.2545 26.7913 12.5V26.3114L34.7489 32.0647C34.9498 32.2042 34.9944 32.4833 34.8493 32.6842Z" fill="#F8F8F8"/>
</svg>
