<svg width="50" height="50" viewBox="0 0 50 50" fill="none" xmlns="http://www.w3.org/2000/svg">
<path d="M49.4565 22.3315H9.70932L33.4992 0.983146C33.8796 0.639045 33.6487 0 33.146 0H27.134C26.869 0 26.6177 0.0983142 26.4207 0.273876L0.749044 23.3006C0.513921 23.5112 0.325354 23.7717 0.196119 24.0643C0.066884 24.3569 0 24.6748 0 24.9965C0 25.3181 0.066884 25.6361 0.196119 25.9287C0.325354 26.2213 0.513921 26.4817 0.749044 26.6924L26.5701 49.8595C26.672 49.9508 26.7943 50 26.9234 50H33.1392C33.6419 50 33.8729 49.3539 33.4924 49.0169L9.70932 27.6685H49.4565C49.7554 27.6685 50 27.4157 50 27.1067V22.8933C50 22.5843 49.7554 22.3315 49.4565 22.3315Z" fill="#F8F8F8"/>
</svg>
